<?xml version="1.0" encoding="utf-8"?>
<!-- Generator: Adobe Illustrator 23.0.2, SVG Export Plug-In . SVG Version: 6.00 Build 0)  -->
<svg version="1.1" id="Layer_1" xmlns="http://www.w3.org/2000/svg" xmlns:xlink="http://www.w3.org/1999/xlink" x="0px" y="0px"
	 viewBox="0 0 482.85 109.07" style="enable-background:new 0 0 482.85 109.07;" xml:space="preserve">
<style type="text/css">
	.st0{fill:#2386E3;}
	.st1{fill:#2665A3;}
	.st2{fill:#FFFFFF;}
	.st3{fill:#03121C;}
	.st4{fill:#06111D;}
</style>
<g>
	<circle class="st0" cx="61.64" cy="54.16" r="41.31"/>
	<path class="st1" d="M42.06,37.18l-4.86,4.93l6.38,4.81l14.13,0.01l-4.31,5.56l2.11,4.81l11.32,0.04c0,0,0.03-1.1,0.7-5.48
		c1.07-6.98,13.06-7.39,12.95,0.44c-0.09,5.76-4.52,6.45-7.39,6.54c-2.87,0.09-37.63-0.02-37.63-0.02l-5.33,4.75l4.58,4.81h17.53
		l-5.07,6.84l3.82,4.81h11.07l3.04-11.92c0,0,6.78-0.14,9.57-0.14c4.95,0,18.08-3.23,18.08-16.96c0-12.43-13.56-13.73-18.6-13.73
		C69.09,37.26,42.06,37.18,42.06,37.18z"/>
	<path class="st2" d="M39.95,32.37l-2.74,9.74l18.39,0.01l-2.2,10.37l11.32,0.04c0,0,0.03-1.1,0.7-5.48
		c1.07-6.98,13.06-7.39,12.95,0.44c-0.09,5.76-4.52,6.45-7.39,6.54c-2.87,0.09-37.63-0.02-37.63-0.02l-3.22,9.56h19.99l-2.95,11.65
		h12.78l3.04-11.92c0,0,6.78-0.14,9.57-0.14c4.95,0,18.08-3.23,18.08-16.96c0-12.43-13.56-13.73-18.6-13.73
		C66.97,32.45,39.95,32.37,39.95,32.37z"/>
</g>
<g>
	<polygon class="st3" points="123.68,32.44 138.59,32.44 133.24,51.69 149.72,51.69 155.04,32.44 169.55,32.44 155.64,82.98 
		142,82.98 146.68,63.39 129.83,63.39 124.22,82.98 109.97,82.98 	"/>
	<path class="st3" d="M169.55,44.37h13.97l0.69,22.71l13.05-22.71h14.14l-22.6,35.66c0,0-7.34,13.34-18.42,13.79
		c-5.11,0-7.52-0.9-10.13-2.91c1.5-2.41,4.38-7.92,4.38-7.92s3.01,2.67,7.53,1.03c2.7-1.03,1.77-5.14,1.77-5.14L169.55,44.37z"/>
	<path class="st0" d="M431.64,44.37h13.97l0.69,22.71l13.05-22.71h14.14l-22.6,35.66c0,0-7.34,13.34-18.42,13.79
		c-5.11,0-7.52-0.9-10.13-2.91c1.5-2.41,4.38-7.92,4.38-7.92s3.01,2.67,7.53,1.03c2.7-1.03,1.77-5.14,1.77-5.14L431.64,44.37z"/>
	<path class="st3" d="M242.76,44.37c-7.02-2.61-13.05,0.64-16.19,4.71c0.67-2.89,0.84-4.71,0.84-4.71h-12.24l-13.44,49.44h13.44
		l4.56-17.3c0,0,3.56,5.97,9.88,6.47c0,0,11.53,1.5,17.45-9.03C252.99,63.43,253.99,48.48,242.76,44.37z M236.67,66.42
		c-2.09,4.67-6.9,7.06-10.74,5.34c-3.84-1.72-5.26-6.9-3.17-11.57c2.09-4.67,6.9-7.06,10.74-5.34
		C237.34,56.57,238.76,61.75,236.67,66.42z"/>
	<path class="st3" d="M277.06,44.39c-14.58-0.57-23.54,11.2-23.54,22.83s15.11,23.8,33.03,10.56c-3.21-4.41-6.02-7.22-6.02-7.22
		c-4.81,4.81-16.31,4.41-15.65-4.15h25.67C290.57,66.42,298.86,45.36,277.06,44.39z M281.81,60.92c-7.25,0-15.8,0-15.8,0
		C267.47,50.54,283.21,48.98,281.81,60.92z"/>
	<path class="st3" d="M300.66,44.37l-9.73,37.71h12.64c0,0,2.71-17.35,8.12-21.16c5.42-3.81,9.53-3.51,11.53-3.31
		c0.9-4.91,3.51-13.99,3.51-13.99c-3.51-0.65-9.73,0.75-14.84,7.37c1-3.41,1.81-6.62,1.81-6.62H300.66z"/>
	<path class="st0" d="M334.79,32.64l-3.17,11.24l21.22,0.01l-2.54,11.97l13.06,0.04c0,0,0.03-1.26,0.81-6.32
		c1.23-8.06,15.08-8.52,14.94,0.5c-0.1,6.64-5.22,7.44-8.53,7.54c-3.31,0.1-43.43-0.02-43.43-0.02l-3.71,11.03h23.07l-3.41,13.44
		h14.74l3.5-13.76c0,0,7.83-0.16,11.04-0.16c5.72,0,20.86-3.73,20.86-19.58c0-14.34-15.65-15.85-21.46-15.85
		S334.79,32.64,334.79,32.64z"/>
	<path class="st0" d="M419.03,45.37c-8.78-1.17-14.27-0.65-22.27,0.9l1.1,8.73c0,0,10.09-1.7,14.78-0.39
		c3.51,0.98,1.97,5.91,1.97,5.91s-8.02-3.16-16.95,0c-6.91,2.45-13.84,12.14-6.42,20.66c3.71,3.41,10.54,3.68,17.45-1.7
		c-0.2,1.4-0.8,3.81-0.8,3.81h13.14c0,0,5.72-20.06,6.32-22.77S431.07,46.98,419.03,45.37z M410.74,72.42
		c-2.14,2.7-5.05,3.15-6.65,2.24c-2.06-1.17-2.98-4.24-1.2-6.72c1.49-2.09,7.19-2.23,9.63-2.01
		C413.81,66.27,412.81,69.81,410.74,72.42z"/>
</g>
</svg>
