<svg xmlns="http://www.w3.org/2000/svg" xmlns:xlink="http://www.w3.org/1999/xlink" viewBox="0 0 165.215 45"><defs><linearGradient id="linear-gradient" y1="0.336" x2="1" y2="0.5" gradientUnits="objectBoundingBox"><stop offset="0" stopColor="#ff2c48"/><stop offset="1" stopColor="#ff761c"/></linearGradient><linearGradient id="linear-gradient-2" x1="0.137" y1="0.817" x2="0.759" y2="0.162" gradientUnits="objectBoundingBox"><stop offset="0" stopColor="#b400ff"/><stop offset="1" stopColor="#ff3a52"/></linearGradient></defs><g id="torum-logo-navbar" transform="translate(178)"><path id="Path_31929" data-name="Path 31929" d="M7.714-190.721h4.72v-16.548H18.96v-3.846H1.188v3.846H7.714Zm23.074.35c6.409,0,11.158-4.457,11.158-10.547S37.2-211.464,30.788-211.464c-6.439,0-11.158,4.487-11.158,10.547S24.35-190.371,30.788-190.371Zm0-4.021a6.221,6.221,0,0,1-6.38-6.526,6.221,6.221,0,0,1,6.38-6.526,6.221,6.221,0,0,1,6.38,6.526A6.221,6.221,0,0,1,30.788-194.391Zm32.484,3.671L58.7-197.276a6.63,6.63,0,0,0,4.2-6.439c0-4.574-3.409-7.4-8.857-7.4H45.21v20.394h4.72V-196.4H54.27l3.933,5.681Zm-5.157-12.994c0,2.214-1.457,3.554-4.341,3.554H49.929v-7.109h3.846C56.659-207.269,58.116-205.958,58.116-203.714Zm17.276,13.343c5.8,0,9.235-3.321,9.235-9.323v-11.421H79.966v11.246c0,3.875-1.661,5.477-4.545,5.477-2.855,0-4.545-1.6-4.545-5.477v-11.246h-4.72v11.421C66.157-193.692,69.595-190.371,75.392-190.371Zm36.592-.35-.058-20.394h-3.875l-7.517,12.673L92.9-211.114H89v20.394h4.428v-11.974l5.972,9.818h2.127l6-10.08.029,12.236Z" transform="translate(-124.77 223.417)" fill="url(#linear-gradient)"/><g id="Group_4517" data-name="Group 4517" transform="translate(-178)"><g id="Group_4509" data-name="Group 4509" transform="translate(0)"><g id="flatTorumLogo189-01" transform="translate(0 0)"><path id="Path_29607" data-name="Path 29607" d="M57.63,25.473v12.88a9.609,9.609,0,0,1-4.808,8.331L42.246,53.125a10.406,10.406,0,0,1-.933.476l-.05.021a9.616,9.616,0,0,1-7.7-.021l-.05-.024c-.3-.133-.6-.286-.885-.45l-.257-.149-10.319-6.3a9.612,9.612,0,0,1-4.805-8.33V25.473c0-3.436,1.253-6.036,4.229-7.754l11.154-6.434a9.623,9.623,0,0,1,8.68-.476,9.811,9.811,0,0,1,.933.476L53.4,17.726c2.975,1.716,4.231,4.313,4.231,7.748Z" transform="translate(-16.653 -9.415)" fill="#fff"/><path id="Path_29608" data-name="Path 29608" d="M48.784,16.049V28.928a9.609,9.609,0,0,1-4.808,8.331l-10.344,6-.438.238a.912.912,0,0,1-1.352-.8V33.531h0a9.625,9.625,0,0,0-7.752-.045v9.178a.912.912,0,0,1-1.342.8l-.359-.192L12.056,37.254A9.611,9.611,0,0,1,7.25,28.924V16.049a9.611,9.611,0,0,1,4.806-8.33L23.209,1.285A9.623,9.623,0,0,1,31.89.809a9.81,9.81,0,0,1,.933.476L43.976,7.726a9.609,9.609,0,0,1,4.808,8.323Z" transform="translate(-7.23 0.008)" fill="url(#linear-gradient-2)"/><path id="Path_29609" data-name="Path 29609" d="M64.451,60.269a3.859,3.859,0,0,1-5.866,3.176l-3.1-1.925a.305.305,0,0,0-.477.26V82.654a9.629,9.629,0,0,1-7.706-.022l-.05-.024V61.781a.305.305,0,0,0-.477-.26l-3.1,1.925a3.859,3.859,0,1,1-3.981-6.6l9.439-5.871a3.866,3.866,0,0,1,4.016,0l9.439,5.871A3.852,3.852,0,0,1,64.451,60.269Z" transform="translate(-30.405 -38.454)" fill="#fff"/><path id="Path_29610" data-name="Path 29610" d="M65.842,29.443a.947.947,0,0,1-.947-.947V16.052a7.715,7.715,0,0,0-3.843-6.634L49.8,2.906a7.765,7.765,0,0,0-7.772.083L32.2,8.64A.947.947,0,1,1,31.258,7l9.811-5.644a9.66,9.66,0,0,1,9.667-.091L62,7.779a9.616,9.616,0,0,1,4.788,8.27V28.5A.947.947,0,0,1,65.842,29.443Z" transform="translate(-25.222 -0.012)" fill="#ff7db7"/><path id="Line_1" data-name="Line 1" d="M8.2,4.437a.942.942,0,0,1-.473-.127L-3.463-2.169a.947.947,0,0,1-.345-1.294.947.947,0,0,1,1.294-.345L8.679,2.67A.947.947,0,0,1,8.2,4.437Z" transform="translate(28.099 5.09)" fill="#ffd6e6"/><path id="Path_29611" data-name="Path 29611" d="M23.17,101.525a.942.942,0,0,1-.476-.129L11.947,95.135A9.59,9.59,0,0,1,7.2,86.746V76.912a.947.947,0,0,1,1.894,0v9.847A7.7,7.7,0,0,0,12.9,93.5L23.648,99.76a.947.947,0,0,1-.478,1.765Z" transform="translate(-7.202 -57.923)" fill="#811585"/><path id="Line_2" data-name="Line 2" d="M4.524,2.319a.942.942,0,0,1-.474-.128L-3.461-2.167A.947.947,0,0,1-3.8-3.461.947.947,0,0,1-2.51-3.8L5,.552a.947.947,0,0,1-.476,1.766Z" transform="translate(11.429 41.283)" fill="#5b115c"/><path id="Path_29612" data-name="Path 29612" d="M96.469,57.382a.947.947,0,0,1-.855-1.353,5.1,5.1,0,0,0,.467-1.673,4.036,4.036,0,0,0-1.564-3.29L84.572,44.91a3.965,3.965,0,0,0-1.8-.451,3.857,3.857,0,0,0-2.146.65.947.947,0,0,1-1.049-1.577,5.749,5.749,0,0,1,3.208-.967,5.9,5.9,0,0,1,2.737.708l10.109,6.271a5.99,5.99,0,0,1,2.338,4.909,7.028,7.028,0,0,1-.644,2.389A.947.947,0,0,1,96.469,57.382Z" transform="translate(-62.047 -32.444)" fill="#ff7db7"/><path id="Path_29613" data-name="Path 29613" d="M110.919,53.1a.942.942,0,0,1-.5-.144l-3.224-2a.947.947,0,1,1,1-1.606l3.224,2a.947.947,0,0,1-.5,1.75Z" transform="translate(-83.059 -37.497)" fill="#ffd6e6"/></g></g></g></g></svg>